<svg width="1470" height="807" xmlns="http://www.w3.org/2000/svg" xmlns:svg="http://www.w3.org/2000/svg">
 <g class="layer">
  <title>Layer 1</title>
  <path d="m521.119,630.408l0,-50.66c0,-15.793 -12.802,-28.596 -28.595,-28.596l-36.152,0l0,240.942l46.342,0l18.405,0l57.181,0l0,-104.505c0,-15.793 -12.803,-28.596 -28.596,-28.596c-15.782,0.011 -28.585,-12.792 -28.585,-28.585z" fill="#B6D5D0" id="svg_1"/>
  <path d="m831.839,731.837l-23.069,22.529l-7.761,-11.54l-12.382,-18.416l29.664,-13.785l8.096,12.684l5.452,8.528z" fill="#E9928B" id="svg_2"/>
  <path d="m826.387,723.309c-11.896,6.067 -21.028,14.854 -25.378,19.517l-12.382,-18.416l29.664,-13.785l8.096,12.684z" fill="#DE6667" id="svg_3"/>
  <path d="m899.901,55.9502l-489.72,0l0,255.3528l489.72,0l0,-255.3528z" fill="#EDF6F5" id="svg_4"/>
  <path d="m515.927,78.8867l-78.878,0l0,72.7463l78.878,0l0,-72.7463z" fill="#DCECEB" id="svg_5"/>
  <path d="m851.28,144.748l-2.958,0l0,-4.437l-4.436,0l0,-2.957l7.394,0l0,7.394z" fill="#B6D5D0" id="svg_6"/>
  <path d="m831.786,140.311l-12.101,0l0,-2.957l12.101,0l0,2.957zm-24.191,0l-12.101,0l0,-2.957l12.101,0l0,2.957zm-24.202,0l-12.101,0l0,-2.957l12.101,0l0,2.957zm-24.192,0l-12.101,0l0,-2.957l12.101,0l0,2.957zm-24.202,0l-12.101,0l0,-2.957l12.101,0l0,2.957zm-24.191,0l-12.101,0l0,-2.957l12.101,0l0,2.957zm-24.191,0l-12.101,0l0,-2.957l12.101,0l0,2.957zm-24.203,0l-12.101,0l0,-2.957l12.101,0l0,2.957zm-24.191,0l-12.101,0l0,-2.957l12.101,0l0,2.957z" fill="#B6D5D0" id="svg_7"/>
  <path d="m609.583,144.748l-2.958,0l0,-7.394l7.395,0l0,2.957l-4.437,0l0,4.437z" fill="#B6D5D0" id="svg_8"/>
  <path d="m609.583,265.576l-2.958,0l0,-12.08l2.958,0l0,12.08zm0,-24.159l-2.958,0l0,-12.091l2.958,0l0,12.091zm0,-24.17l-2.958,0l0,-12.079l2.958,0l0,12.079zm0,-24.17l-2.958,0l0,-12.079l2.958,0l0,12.079zm0,-24.159l-2.958,0l0,-12.079l2.958,0l0,12.079z" fill="#B6D5D0" id="svg_9"/>
  <path d="m614.02,285.049l-7.395,0l0,-7.384l2.958,0l0,4.426l4.437,0l0,2.958z" fill="#B6D5D0" id="svg_10"/>
  <path d="m831.786,285.049l-12.101,0l0,-2.958l12.101,0l0,2.958zm-24.191,0l-12.101,0l0,-2.958l12.101,0l0,2.958zm-24.202,0l-12.101,0l0,-2.958l12.101,0l0,2.958zm-24.192,0l-12.101,0l0,-2.958l12.101,0l0,2.958zm-24.202,0l-12.101,0l0,-2.958l12.101,0l0,2.958zm-24.191,0l-12.101,0l0,-2.958l12.101,0l0,2.958zm-24.191,0l-12.101,0l0,-2.958l12.101,0l0,2.958zm-24.203,0l-12.101,0l0,-2.958l12.101,0l0,2.958zm-24.191,0l-12.101,0l0,-2.958l12.101,0l0,2.958z" fill="#B6D5D0" id="svg_11"/>
  <path d="m851.28,285.049l-7.394,0l0,-2.958l4.436,0l0,-4.426l2.958,0l0,7.384z" fill="#B6D5D0" id="svg_12"/>
  <path d="m851.28,265.576l-2.958,0l0,-12.08l2.958,0l0,12.08zm0,-24.159l-2.958,0l0,-12.091l2.958,0l0,12.091zm0,-24.17l-2.958,0l0,-12.079l2.958,0l0,12.079zm0,-24.17l-2.958,0l0,-12.079l2.958,0l0,12.079zm0,-24.159l-2.958,0l0,-12.079l2.958,0l0,12.079z" fill="#B6D5D0" id="svg_13"/>
  <path d="m622.948,325.097l-257.922,0c-4.048,0 -7.33,-3.282 -7.33,-7.33l0,-126.656c0,-4.048 3.282,-7.33 7.33,-7.33l257.922,0c4.048,0 7.33,3.282 7.33,7.33l0,126.667c-0.011,4.037 -3.282,7.319 -7.33,7.319z" fill="#B2E5E0" id="svg_14"/>
  <path d="m631.822,333.973l-257.922,0c-4.048,0 -7.33,-3.282 -7.33,-7.33l0,-126.667c0,-4.048 3.282,-7.33 7.33,-7.33l257.922,0c4.048,0 7.33,3.282 7.33,7.33l0,126.667c-0.011,4.048 -3.282,7.33 -7.33,7.33z" fill="#3FB8A9" id="svg_15"/>
  <path d="m386.032,323.618l231.691,0c0,0 -7.719,-54.06 -19.885,-70.49c-12.155,-16.43 -22.345,6.239 -35.817,33.194c-13.472,26.944 -41.409,39.11 -61.779,12.155c-20.381,-26.944 -29.578,-35.494 -52.258,-21.028c-22.68,14.465 -40.427,2.299 -47.983,-16.43c-7.557,-18.729 -13.969,-18.405 -13.969,-18.405l0,81.004z" fill="white" id="svg_16" opacity="0.67"/>
  <path d="m386.032,323.619c0,0 10.676,0.496 19.226,-11.335c8.549,-11.831 10.849,-29.902 20.046,-35.493c9.197,-5.592 17.747,0 30.56,23.414c12.814,23.414 32.86,12.403 41.409,-10.925c8.55,-23.327 12.49,-34.511 26.621,-35.817c14.13,-1.317 23.003,16.106 27.937,32.86c4.933,16.764 17.747,22.345 30.56,15.447c12.814,-6.898 35.332,21.86 35.332,21.86l-231.691,0l0,-0.011z" fill="white" id="svg_17" opacity="0.28"/>
  <path d="m390.469,213.037c-2.451,0 -4.437,-1.987 -4.437,-4.437c0,-2.451 1.986,-4.437 4.437,-4.437c2.45,0 4.437,1.986 4.437,4.437c0,2.45 -1.987,4.437 -4.437,4.437z" fill="white" id="svg_18"/>
  <path d="m498.925,205.968l-93.008,0l0,5.257l93.008,0l0,-5.257z" fill="white" id="svg_19"/>
  <path d="m390.469,229.056c-2.451,0 -4.437,-1.986 -4.437,-4.437c0,-2.45 1.986,-4.436 4.437,-4.436c2.45,0 4.437,1.986 4.437,4.436c0,2.451 -1.987,4.437 -4.437,4.437z" fill="white" id="svg_20"/>
  <path d="m477.562,221.985l-71.645,0l0,5.257l71.645,0l0,-5.257z" fill="white" id="svg_21"/>
  <path d="m525.167,86.3486l-78.878,0l0,72.7464l78.878,0l0,-72.7464z" fill="white" id="svg_22"/>
  <path d="m515.927,118.538l-28.682,12.976l-28.671,-12.976l0,19.388l57.353,0l0,-19.388z" fill="#FFAB40" id="svg_23"/>
  <path d="m515.927,109.783l-57.353,0l0,5.182l28.671,12.684l28.682,-12.684l0,-5.182z" fill="#FFAB40" id="svg_24"/>
  <path d="m763.152,133.015l-158.652,0l0,-7.406l158.652,0l0,7.406zm-157.659,-0.994l156.677,0l0,-5.44l-156.677,0l0,5.44z" fill="white" id="svg_25"/>
  <path d="m763.152,102.441l-158.652,0l0,-7.4049l158.652,0l0,7.4049zm-157.659,-0.982l156.677,0l0,-5.4405l-156.677,0l0,5.4405z" fill="white" id="svg_26"/>
  <path d="m763.153,71.8838l-158.653,0l0,-7.4053l158.653,0l0,7.4053zm-157.659,-0.9824l156.676,0l0,-5.4406l-156.676,0l0,5.4406z" fill="white" id="svg_27"/>
  <path d="m1008.78,186.232l-60.205,0l0,44.335l60.205,0l0,-44.335z" fill="#DCECEB" id="svg_28"/>
  <path d="m968.016,219.351l-13.095,-9.877c-0.323,-0.249 -0.518,-0.626 -0.518,-1.026c0,-0.399 0.184,-0.788 0.508,-1.036l13.008,-9.953l1.576,2.051l-11.659,8.917l11.734,8.841l-1.554,2.083z" fill="white" id="svg_29"/>
  <path d="m989.325,219.352l-1.555,-2.062l11.734,-8.841l-11.658,-8.917l1.576,-2.051l13.008,9.953c0.32,0.249 0.51,0.626 0.51,1.037c0,0.41 -0.2,0.788 -0.52,1.025l-13.095,9.856z" fill="white" id="svg_30"/>
  <path d="m980.337,196.499l-5.793,23.276l2.514,0.626l5.793,-23.276l-2.514,-0.626z" fill="white" id="svg_31"/>
  <path d="m909.271,729.894l-25.357,23.652l-6.326,-28.348l-2.45,-10.967l30.301,-7.665l1.749,10.677l2.083,12.651z" fill="#E9928B" id="svg_32"/>
  <path d="m907.188,717.241c0,0 -6.531,-0.68 -12.533,0.788c-4.404,1.079 -17.077,7.167 -17.077,7.167l-2.451,-10.978l30.302,-7.664l1.759,10.687z" fill="#DE6667" id="svg_33"/>
  <path d="m902.697,727.304c-12.835,-0.194 -17.434,10.331 -21.752,20.111c-4.317,9.78 -9.542,32.59 -17.023,34.9c-7.481,2.299 -11.507,6.326 -11.507,10.935l26.987,0c0,0 16.937,-18.621 25.648,-25.886c8.712,-7.265 10.828,-11.982 10.828,-11.982c0,0 -3.347,-17.995 -6.607,-25.465c0,-0.022 -2.299,-2.548 -6.574,-2.613z" fill="#0C1B3C" id="svg_34"/>
  <path d="m904.823,746.066c-9.359,1.943 -12.803,11.983 -18.557,28.672c-5.753,16.678 -17.163,18.502 -17.163,18.502l31.877,0c0,0 1.781,-6.131 5.57,-13.893c2.807,-5.754 7.643,-12.317 8.863,-18.319c2.871,-14.098 -8.312,-15.437 -10.59,-14.962z" fill="#408C91" id="svg_35"/>
  <path d="m907.102,709.092c-20.014,2.213 -34.058,8.874 -34.058,8.874c0,0 -6.812,2.213 -16.668,-18.524c-9.855,-20.759 -44.518,-85.733 -44.518,-85.733l39.855,1.263l30.129,0.961c0,0 16.267,41.161 24.158,58.659c7.892,17.488 1.102,34.5 1.102,34.5z" fill="#376F92" id="svg_36"/>
  <path d="m873.053,681.069c-12.079,14.465 -8.031,31.294 0,36.897c0,0 -6.811,2.213 -16.667,-18.524c-9.856,-20.759 -44.518,-85.733 -44.518,-85.733l39.855,1.263l26.015,11.55c0,0 -25.627,3.282 -31.38,16.765c-5.754,13.472 38.764,23.328 26.695,37.782z" fill="#1B5175" id="svg_37"/>
  <path d="m1469.09,796.489c0,0 0.12,-72.693 -79.48,-37.339c0,0 -17.5,-62.578 -63.33,-59.621c-45.85,2.958 -50.29,62.179 -50.29,62.179c0,0 -62.78,-31.91 -96.46,32.806l289.56,1.975z" fill="#ADCCC7" id="svg_38"/>
  <path d="m1335,793.908l-1.95,-0.27c5.3,-37.858 -15.09,-65.007 -15.3,-65.277l1.57,-1.198c0.2,0.27 21.09,28.078 15.68,66.745z" fill="#6EAB9C" id="svg_39"/>
  <path d="m1335.71,770.681l-1.6,-1.166c0.19,-0.259 18.81,-25.864 21.98,-41.959l1.94,0.377c-3.25,16.538 -21.54,41.69 -22.32,42.748z" fill="#6EAB9C" id="svg_40"/>
  <path d="m1334.83,784.099c-14.54,-0.907 -27.4,-18.114 -27.94,-18.848l1.59,-1.166c0.13,0.173 12.85,17.196 26.47,18.049l-0.12,1.965z" fill="#6EAB9C" id="svg_41"/>
  <path d="m1381.46,793.652l2.65,-1.9c0.24,-0.183 25.45,-18.038 52.43,-19.301l0.09,1.965c-21.12,0.982 -41.19,12.414 -48.49,17.023l26.18,-0.907l0.07,1.965l-32.93,1.155z" fill="#6EAB9C" id="svg_42"/>
  <path d="m1402.19,783.428l-1.87,-0.637c4.14,-12.08 12.89,-23.501 13.25,-23.986l1.57,1.198c-0.09,0.119 -8.92,11.658 -12.95,23.425z" fill="#6EAB9C" id="svg_43"/>
  <path d="m1275.54,793.305c-0.19,-0.162 -19.74,-16.581 -41.55,-24.234l0.65,-1.857c22.16,7.772 41.97,24.418 42.18,24.58l-1.28,1.511z" fill="#6EAB9C" id="svg_44"/>
  <path d="m1224.71,787.554l-0.9,-1.76c0.57,-0.291 14.35,-7.189 39.68,-3.659l-0.27,1.954c-24.67,-3.422 -38.38,3.4 -38.51,3.465z" fill="#6EAB9C" id="svg_45"/>
  <g id="svg_46" opacity="0.4">
   <path d="m764.792,636.855l-4.448,-2.472c-2.817,-1.565 -4.555,-4.545 -4.501,-7.762c0.011,-0.367 0.022,-0.723 0.022,-1.09c0,-0.367 -0.011,-0.723 -0.022,-1.09c-0.054,-3.217 1.684,-6.196 4.501,-7.762l4.448,-2.472c3.519,-1.954 5.246,-6.045 4.221,-9.931c-0.022,-0.043 -0.022,-0.086 -0.043,-0.13c-1.037,-3.875 -4.599,-6.552 -8.604,-6.487l-5.095,0.086c-3.26,0.054 -6.24,-1.727 -7.837,-4.566c-0.324,-0.561 -0.648,-1.123 -0.961,-1.673c-1.684,-2.796 -1.738,-6.283 -0.054,-9.09l2.612,-4.339c2.073,-3.455 1.522,-7.87 -1.317,-10.709c-0.032,-0.032 -0.075,-0.075 -0.108,-0.108c-2.839,-2.839 -7.254,-3.389 -10.708,-1.317l-4.34,2.613c-2.806,1.684 -6.293,1.619 -9.089,-0.054c-0.55,-0.324 -1.112,-0.648 -1.673,-0.961c-2.839,-1.587 -4.631,-4.566 -4.566,-7.837l0.086,-5.095c0.065,-4.016 -2.612,-7.567 -6.488,-8.604c-0.043,-0.021 -0.086,-0.021 -0.129,-0.043c-3.886,-1.025 -7.978,0.702 -9.932,4.221l-2.472,4.447c-1.565,2.818 -4.544,4.556 -7.761,4.502c-0.367,-0.011 -0.723,-0.022 -1.09,-0.022c-0.367,0 -0.724,0.011 -1.091,0.022c-3.216,0.054 -6.196,-1.684 -7.761,-4.502l-2.472,-4.447c-1.954,-3.519 -6.045,-5.246 -9.931,-4.221c-0.044,0.022 -0.087,0.022 -0.13,0.043c-3.875,1.037 -6.552,4.599 -6.488,8.604l0.087,5.095c0.054,3.26 -1.728,6.239 -4.567,7.837c-0.561,0.324 -1.122,0.648 -1.673,0.961c-2.796,1.684 -6.282,1.738 -9.089,0.054l-4.34,-2.613c-3.454,-2.061 -7.869,-1.522 -10.708,1.317c-0.033,0.033 -0.076,0.076 -0.108,0.108c-2.839,2.839 -3.39,7.254 -1.317,10.709l2.612,4.339c1.684,2.807 1.62,6.294 -0.054,9.09c-0.324,0.55 -0.647,1.112 -0.96,1.673c-1.587,2.839 -4.567,4.631 -7.837,4.566l-5.096,-0.086c-4.015,-0.065 -7.567,2.612 -8.603,6.487c-0.022,0.044 -0.022,0.087 -0.043,0.13c-1.026,3.886 0.701,7.977 4.22,9.931l4.448,2.472c2.817,1.566 4.555,4.545 4.501,7.762c-0.01,0.367 -0.021,0.723 -0.021,1.09c0,0.367 0.011,0.723 0.021,1.09c0.054,3.217 -1.684,6.197 -4.501,7.762l-4.448,2.472c-3.519,1.954 -5.246,6.045 -4.22,9.931c0.021,0.043 0.021,0.087 0.043,0.13c1.036,3.875 4.598,6.552 8.603,6.487l5.096,-0.086c3.26,-0.054 6.239,1.727 7.837,4.566c0.323,0.562 0.647,1.123 0.96,1.674c1.684,2.795 1.738,6.282 0.054,9.089l-2.612,4.339c-2.062,3.455 -1.522,7.87 1.317,10.709c0.032,0.032 0.075,0.075 0.108,0.108c2.839,2.839 7.254,3.389 10.708,1.317l4.34,-2.612c2.807,-1.684 6.293,-1.62 9.089,0.053c0.551,0.324 1.112,0.648 1.673,0.961c2.839,1.587 4.631,4.566 4.567,7.837l-0.087,5.095c-0.064,4.016 2.613,7.568 6.488,8.604c0.043,0.021 0.086,0.022 0.13,0.043c3.886,1.026 7.977,-0.702 9.931,-4.221l2.472,-4.447c1.565,-2.818 4.545,-4.556 7.761,-4.502c0.367,0.011 0.724,0.022 1.091,0.022c0.367,0 0.723,-0.011 1.09,-0.022c3.217,-0.054 6.196,1.684 7.761,4.502l2.472,4.447c1.954,3.519 6.046,5.247 9.932,4.221c0.043,-0.021 0.086,-0.022 0.129,-0.043c3.876,-1.036 6.553,-4.599 6.488,-8.604l-0.086,-5.095c-0.054,-3.26 1.727,-6.239 4.566,-7.837c0.561,-0.324 1.123,-0.648 1.673,-0.961c2.796,-1.684 6.283,-1.737 9.089,-0.053l4.34,2.612c3.454,2.062 7.869,1.522 10.708,-1.317c0.033,-0.033 0.076,-0.076 0.108,-0.108c2.839,-2.839 3.39,-7.254 1.317,-10.709l-2.612,-4.339c-1.684,-2.807 -1.619,-6.294 0.054,-9.089c0.324,-0.551 0.648,-1.112 0.961,-1.674c1.587,-2.839 4.566,-4.631 7.837,-4.566l5.095,0.086c4.016,0.065 7.567,-2.612 8.604,-6.487c0.021,-0.043 0.021,-0.087 0.043,-0.13c1.025,-3.886 -0.702,-7.988 -4.221,-9.931zm-75.37,38.084c-27.289,0 -49.419,-22.118 -49.419,-49.419c0,-27.289 22.119,-49.419 49.419,-49.419c27.29,0 49.419,22.119 49.419,49.419c-0.011,27.301 -22.129,49.419 -49.419,49.419z" fill="#F4D7C9" id="svg_47" opacity="0.4"/>
   <path d="m710.992,631.758c3.254,-11.88 -3.738,-24.148 -15.618,-27.402c-11.88,-3.255 -24.149,3.738 -27.403,15.618c-3.254,11.88 3.738,24.148 15.618,27.403c11.88,3.254 24.149,-3.739 27.403,-15.619z" fill="#F4D7C9" id="svg_48" opacity="0.4"/>
  </g>
  <g id="svg_49" opacity="0.4">
   <path d="m1057.68,736.114l-2.59,-1.447c-1.64,-0.917 -2.66,-2.655 -2.64,-4.533c0,-0.216 0.01,-0.421 0.01,-0.637c0,-0.216 0,-0.421 -0.01,-0.637c-0.03,-1.878 0.99,-3.616 2.64,-4.534l2.59,-1.447c2.05,-1.144 3.06,-3.529 2.46,-5.796c-0.01,-0.022 -0.01,-0.054 -0.02,-0.076c-0.61,-2.267 -2.68,-3.832 -5.02,-3.789l-2.98,0.043c-1.9,0.033 -3.65,-1.015 -4.58,-2.666c-0.18,-0.324 -0.38,-0.659 -0.56,-0.972c-0.98,-1.63 -1.01,-3.67 -0.03,-5.311l1.52,-2.536c1.21,-2.019 0.89,-4.588 -0.77,-6.251c-0.02,-0.021 -0.04,-0.043 -0.06,-0.064c-1.66,-1.663 -4.23,-1.976 -6.25,-0.767l-2.54,1.522c-1.64,0.982 -3.67,0.95 -5.31,-0.032c-0.32,-0.184 -0.65,-0.378 -0.97,-0.562c-1.66,-0.928 -2.7,-2.666 -2.67,-4.577l0.05,-2.979c0.04,-2.343 -1.53,-4.415 -3.79,-5.02c-0.02,-0.01 -0.06,-0.01 -0.08,-0.021c-2.26,-0.605 -4.66,0.41 -5.79,2.461l-1.45,2.591c-0.92,1.641 -2.66,2.655 -4.54,2.634c-0.21,0 -0.42,-0.011 -0.63,-0.011c-0.22,0 -0.42,0 -0.64,0.011c-1.88,0.032 -3.62,-0.983 -4.53,-2.634l-1.45,-2.591c-1.14,-2.051 -3.53,-3.066 -5.8,-2.461c-0.02,0.011 -0.05,0.011 -0.07,0.021c-2.268,0.605 -3.823,2.677 -3.791,5.02l0.044,2.979c0.032,1.9 -1.015,3.649 -2.667,4.577c-0.324,0.184 -0.658,0.378 -0.971,0.562c-1.63,0.982 -3.67,1.014 -5.311,0.032l-2.537,-1.522c-2.019,-1.209 -4.588,-0.885 -6.25,0.767c-0.022,0.021 -0.044,0.043 -0.065,0.064c-1.663,1.663 -1.976,4.232 -0.767,6.251l1.523,2.536c0.982,1.641 0.949,3.671 -0.033,5.311c-0.183,0.324 -0.378,0.648 -0.561,0.972c-0.929,1.662 -2.667,2.699 -4.577,2.666l-2.98,-0.043c-2.342,-0.043 -4.415,1.522 -5.019,3.789c-0.011,0.022 -0.011,0.054 -0.022,0.076c-0.604,2.267 0.41,4.663 2.461,5.796l2.591,1.447c1.641,0.918 2.656,2.656 2.634,4.534c0,0.216 -0.011,0.421 -0.011,0.637c0,0.216 0,0.421 0.011,0.637c0.033,1.878 -0.982,3.616 -2.634,4.533l-2.591,1.447c-2.051,1.144 -3.065,3.53 -2.461,5.797c0.011,0.021 0.011,0.054 0.022,0.075c0.604,2.267 2.677,3.822 5.019,3.789l2.98,-0.043c1.9,-0.032 3.648,1.015 4.577,2.667c0.183,0.323 0.378,0.658 0.561,0.971c0.982,1.63 1.015,3.67 0.033,5.311l-1.523,2.537c-1.209,2.019 -0.885,4.588 0.767,6.25c0.021,0.022 0.043,0.043 0.065,0.065c1.662,1.662 4.231,1.975 6.25,0.766l2.537,-1.522c1.641,-0.982 3.67,-0.95 5.311,0.033c0.324,0.183 0.647,0.377 0.971,0.561c1.663,0.928 2.699,2.666 2.667,4.577l-0.044,2.979c-0.043,2.343 1.523,4.416 3.791,5.02c0.02,0.011 0.05,0.011 0.07,0.022c2.27,0.604 4.67,-0.411 5.8,-2.462l1.45,-2.59c0.91,-1.641 2.65,-2.656 4.53,-2.634c0.22,0 0.42,0.011 0.64,0.011c0.21,0 0.42,0 0.63,-0.011c1.88,-0.033 3.62,0.982 4.54,2.634l1.45,2.59c1.14,2.051 3.53,3.066 5.79,2.462c0.02,-0.011 0.06,-0.011 0.08,-0.022c2.26,-0.604 3.82,-2.677 3.79,-5.02l-0.05,-2.979c-0.03,-1.9 1.02,-3.649 2.67,-4.577c0.32,-0.184 0.66,-0.378 0.97,-0.561c1.63,-0.983 3.67,-1.015 5.31,-0.033l2.54,1.522c2.02,1.209 4.59,0.886 6.25,-0.766c0.02,-0.022 0.04,-0.043 0.06,-0.065c1.67,-1.662 1.98,-4.231 0.77,-6.25l-1.52,-2.537c-0.98,-1.641 -0.95,-3.67 0.03,-5.311c0.18,-0.324 0.38,-0.648 0.56,-0.971c0.93,-1.663 2.67,-2.699 4.58,-2.667l2.98,0.043c2.34,0.044 4.41,-1.522 5.02,-3.789c0.01,-0.021 0.01,-0.054 0.02,-0.075c0.59,-2.267 -0.41,-4.664 -2.46,-5.797zm-44,22.227c-15.934,0 -28.845,-12.911 -28.845,-28.844c0,-15.934 12.911,-28.844 28.845,-28.844c15.93,0 28.84,12.91 28.84,28.844c0,15.933 -12.91,28.844 -28.84,28.844z" fill="#F4D7C9" id="svg_50" opacity="0.4"/>
  </g>
  <path d="m1065.58,109.783l130.67,0l0,45.004l-23.29,0l12.15,28.617l-43.43,-28.617l-76.1,0l0,-45.004z" fill="#EB908B" id="svg_51"/>
  <path d="m1182.67,122.932l-101.59,0l0,4.965l101.59,0l0,-4.965z" fill="white" id="svg_52"/>
  <path d="m1182.67,136.727l-101.59,0l0,4.965l101.59,0l0,-4.965z" fill="white" id="svg_53"/>
  <path d="m1469.08,791.804l-1161.04,0l0,14.271l1161.04,0l0,-14.271z" fill="#AECBC7" id="svg_54"/>
  <path d="m923.833,495.505l0,-15.49l-13.947,-3.606l-10.687,-12.738l2.785,-7.621l-85.129,-97.273l-355.604,0c-3.487,0 -6.315,2.829 -6.315,6.315l0,11l0.086,0.065c0.216,1.77 0.939,3.552 2.256,5.117l94.336,112.439c6.855,8.161 16.97,12.889 27.635,12.889l334.717,0c5.473,0 9.316,-4.145 9.867,-8.83c0.086,-0.734 0.086,-1.5 0,-2.267z" fill="#B6D5D0" id="svg_55"/>
  <path d="m913.978,491.124l-334.728,0c-10.665,0 -20.78,-4.718 -27.635,-12.889l-94.347,-112.429c-5.408,-6.444 -0.831,-16.279 7.589,-16.279l334.727,0c10.666,0 20.78,4.718 27.635,12.889l94.347,112.429c5.409,6.445 0.821,16.279 -7.588,16.279z" fill="white" id="svg_56"/>
  <path d="m872.276,466.39c-0.659,0 -1.274,-0.291 -1.695,-0.788l-65.05,-77.28c-1.22,-1.447 -0.194,-3.649 1.695,-3.649c0.658,0 1.273,0.291 1.694,0.788l65.05,77.28c1.22,1.436 0.195,3.649 -1.694,3.649z" fill="#B2E5E0" id="svg_57"/>
  <path d="m617.873,434.167l-75.262,0c-1.77,0 -3.454,-0.788 -4.588,-2.148l-36.907,-44.281c-1.253,-1.5 -0.184,-3.767 1.759,-3.767l75.262,0c1.77,0 3.454,0.788 4.588,2.148l36.908,44.28c1.252,1.501 0.183,3.768 -1.76,3.768z" fill="#DCECEB" id="svg_58"/>
  <path d="m581.332,467.145l-11.097,0c-1.77,0 -3.444,-0.777 -4.577,-2.137l-13.645,-16.289c-1.252,-1.501 -0.194,-3.768 1.76,-3.768l11.097,0c1.77,0 3.443,0.777 4.577,2.138l13.645,16.289c1.252,1.49 0.194,3.767 -1.76,3.767z" fill="#B2E5E0" id="svg_59"/>
  <path d="m613.416,467.145l-11.097,0c-1.77,0 -3.444,-0.777 -4.577,-2.137l-13.645,-16.289c-1.252,-1.501 -0.194,-3.768 1.76,-3.768l11.097,0c1.77,0 3.443,0.777 4.577,2.138l13.645,16.289c1.252,1.49 0.194,3.767 -1.76,3.767z" fill="#B2E5E0" id="svg_60"/>
  <path d="m645.498,467.145l-11.097,0c-1.77,0 -3.443,-0.777 -4.577,-2.137l-13.644,-16.289c-1.253,-1.501 -0.195,-3.768 1.759,-3.768l11.097,0c1.771,0 3.444,0.777 4.577,2.138l13.645,16.289c1.252,1.49 0.194,3.767 -1.76,3.767z" fill="#B2E5E0" id="svg_61"/>
  <path d="m705.129,405.052l-85.021,0c-1.759,0 -3.433,-0.777 -4.566,-2.127l-12.727,-15.166c-1.252,-1.501 -0.194,-3.779 1.759,-3.779l85.021,0c1.759,0 3.433,0.778 4.566,2.127l12.727,15.167c1.253,1.5 0.195,3.778 -1.759,3.778z" fill="#DCECEB" id="svg_62"/>
  <path d="m731.155,436.069l-85.021,0c-1.759,0 -3.433,-0.778 -4.566,-2.127l-12.727,-15.167c-1.252,-1.489 -0.195,-3.778 1.759,-3.778l85.021,0c1.759,0 3.433,0.777 4.566,2.127l12.727,15.166c1.252,1.501 0.184,3.779 -1.759,3.779z" fill="#DCECEB" id="svg_63"/>
  <path d="m757.235,467.146l-85.02,0c-1.76,0 -3.433,-0.777 -4.567,-2.127l-12.727,-15.167c-1.252,-1.489 -0.194,-3.778 1.76,-3.778l85.02,0c1.76,0 3.433,0.777 4.567,2.127l12.727,15.167c1.252,1.5 0.194,3.778 -1.76,3.778z" fill="#DCECEB" id="svg_64"/>
  <path d="m794.704,466.39c-0.658,0 -1.274,-0.291 -1.695,-0.788l-65.049,-77.28c-1.22,-1.447 -0.195,-3.649 1.694,-3.649c0.659,0 1.274,0.291 1.695,0.788l65.05,77.28c1.22,1.436 0.194,3.649 -1.695,3.649z" fill="#B2E5E0" id="svg_65"/>
  <path d="m746.634,401.331l-9.261,0c-1.339,0 -3.325,-1.079 -4.448,-2.418l-3.368,-4.005c-1.123,-1.338 -0.95,-2.418 0.389,-2.418l9.262,0c1.338,0 3.324,1.08 4.447,2.418l3.368,4.005c1.123,1.339 0.95,2.418 -0.389,2.418z" fill="#B2E5E0" id="svg_66"/>
  <path d="m747.271,399.183l-9.262,0c-1.339,0 -3.325,-1.08 -4.448,-2.418l-3.368,-4.005c-1.122,-1.339 -0.95,-2.418 0.389,-2.418l9.262,0c1.338,0 3.325,1.079 4.447,2.418l3.368,4.005c1.123,1.338 0.939,2.418 -0.388,2.418z" fill="#DCECEB" id="svg_67"/>
  <path d="m840.81,421.4l-9.262,0c-1.338,0 -3.325,-1.08 -4.447,-2.419l-3.368,-4.004c-1.123,-1.339 -0.95,-2.418 0.388,-2.418l9.262,0c1.339,0 3.325,1.079 4.448,2.418l3.368,4.004c1.112,1.339 0.939,2.419 -0.389,2.419z" fill="#B2E5E0" id="svg_68"/>
  <path d="m841.437,419.261l-9.262,0c-1.338,0 -3.325,-1.08 -4.447,-2.418l-3.368,-4.005c-1.123,-1.339 -0.95,-2.418 0.388,-2.418l9.262,0c1.339,0 3.325,1.079 4.448,2.418l3.368,4.005c1.123,1.328 0.95,2.418 -0.389,2.418z" fill="#DCECEB" id="svg_69"/>
  <path d="m833.836,466.39c-0.658,0 -1.274,-0.291 -1.695,-0.788l-65.05,-77.28c-1.219,-1.447 -0.194,-3.649 1.695,-3.649c0.659,0 1.274,0.291 1.695,0.788l65.05,77.28c1.22,1.436 0.194,3.649 -1.695,3.649z" fill="#B2E5E0" id="svg_70"/>
  <path d="m824.573,447.59l-9.262,0c-1.338,0 -3.324,-1.08 -4.447,-2.418l-3.368,-4.005c-1.123,-1.338 -0.95,-2.418 0.389,-2.418l9.262,0c1.338,0 3.325,1.08 4.447,2.418l3.368,4.005c1.123,1.328 0.95,2.418 -0.389,2.418z" fill="#B2E5E0" id="svg_71"/>
  <path d="m825.21,445.442l-9.262,0c-1.338,0 -3.325,-1.08 -4.447,-2.419l-3.368,-4.004c-1.123,-1.339 -0.95,-2.418 0.388,-2.418l9.262,0c1.339,0 3.325,1.079 4.448,2.418l3.368,4.004c1.123,1.339 0.95,2.419 -0.389,2.419z" fill="#DCECEB" id="svg_72"/>
  <path d="m934.672,564.451c0,0 -5.365,16.624 -24.494,31.219c-9.251,7.07 -21.719,13.666 -38.365,17.682c-51.038,12.338 -91.907,7.88 -94.865,8.366c-2.634,0.431 22.82,40.664 37.145,64.812c1.781,3.001 3.39,5.743 4.75,8.139c0.172,0.292 0.324,0.583 0.485,0.864c11.67,20.974 5.43,26.242 5.43,26.242c-11.831,1.479 -28.099,14.789 -28.099,14.789c-24.644,6.413 -39.433,-32.039 -53.24,-48.307c-13.807,-16.268 -49.3,-64.575 -33.518,-90.698c15.771,-26.124 156.029,-59.653 156.029,-59.653l13.979,5.398l26.372,10.179l28.391,10.968z" fill="#376F92" id="svg_73"/>
  <path d="m818.854,694.694c0.172,0.292 0.323,0.583 0.485,0.864c-0.194,-0.238 -0.356,-0.529 -0.485,-0.864z" fill="#1B5175" id="svg_74"/>
  <path d="m919.882,582.158c-0.076,0.184 -3.768,5.408 -9.705,13.526c-9.251,7.071 -21.719,13.666 -38.365,17.682c-51.038,12.339 -91.907,7.88 -94.865,8.366c-2.634,0.432 22.82,40.665 37.145,64.813c-8.593,-10.342 -22.173,-11.702 -32.331,-32.385c-12.327,-25.098 -41.409,0.95 -46.72,-19.755c-5.311,-20.704 15.178,-19.225 45.242,-32.535c30.074,-13.31 34.997,-7.891 62.264,-13.321c27.279,-5.43 22.994,-38.883 22.994,-38.883l14.357,-6.337l19.981,-2.58c0,0 2.839,5.635 6.391,12.76c5.958,11.939 13.871,28.023 13.612,28.649z" fill="#1B5175" id="svg_75"/>
  <path d="m831.828,731.828c0,0 14.196,11.853 14.52,20.856c0.323,9.003 -29.881,39.509 -29.881,39.509l-38.311,0c0,0 -4.102,-6.283 6.499,-10.795c10.6,-4.501 11.658,-4.771 15.642,-9.014c3.972,-4.242 7.426,-15.641 13.785,-27.57c6.358,-11.928 17.746,-12.986 17.746,-12.986z" fill="#0C1B3C" id="svg_76"/>
  <path d="m845.884,267.345c0,0 -8.971,-5.516 -11.961,-11.724c-2.99,-6.207 -10.579,-19.776 -11.033,-22.993c-0.453,-3.216 5.981,0.227 9.662,6.672c0,0 -2.526,-6.898 -7.125,-15.869c-4.598,-8.97 -11.96,-14.487 -10.115,-18.859c1.836,-4.371 15.178,12.188 16.787,14.951c1.608,2.764 4.825,-0.226 8.97,1.836c4.134,2.072 4.134,-0.227 8.28,2.299c4.134,2.526 7.696,7.664 12.014,30.28l-15.479,13.407z" fill="#E9928B" id="svg_77"/>
  <path d="m740.179,439.557c0,0 -4.858,-1.674 -13.072,-9.575c-8.205,-7.902 -13.073,-10.785 -15.804,-12.004c-2.731,-1.22 -7.146,-2.58 -11.702,-2.278c-4.555,0.302 -6.995,-1.824 -5.926,-3.346c1.069,-1.523 5.322,-2.58 5.322,-2.58c0,0 -8.356,0.755 -6.229,-3.045c2.127,-3.799 14.131,-2.277 14.131,-2.277c0,0 2.277,-2.883 5.472,-2.883c3.196,0 2.883,-2.58 9.273,-1.824c6.38,0.756 9.727,4.556 16.409,6.078c6.682,1.522 12.208,15.426 12.208,15.426l-10.082,18.308z" fill="#E9928B" id="svg_78"/>
  <path d="m750.23,419.704c0,0 -10.741,9.489 -14.022,19.517l-1.155,2.958l6.239,8.712l14.465,-27.603l-5.527,-3.584z" fill="#93405E" id="svg_79"/>
  <path d="m844.74,275.928l-5.171,-8.129c0,0 10.104,-11.831 23.166,-15.285l3.217,5.667l-21.212,17.747z" fill="#93405E" id="svg_80"/>
  <path d="m999.591,380.887l-39.304,20.856l-5.84,3.098c0,0 -2.083,-1.047 -5.494,-2.828c-11.141,-5.851 -36.444,-19.625 -49.257,-30.69c-5.959,-5.139 -15.837,-17.466 -26.102,-31.23c-18.6,-24.925 -38.473,-54.536 -38.473,-54.536c14.292,-22.183 30.819,-29.578 30.819,-29.578c0,0 44.518,62.611 51.416,68.526c4.037,3.466 31.456,22.152 53.543,37.081c15.695,10.6 28.692,19.301 28.692,19.301z" fill="#67A4C3" id="svg_81"/>
  <path d="m999.592,380.886l-39.304,20.855c-3.487,0.076 -7.341,0.173 -11.324,0.27c-11.14,-5.851 -36.443,-19.625 -49.257,-30.69c-5.959,-5.138 -15.836,-17.466 -26.102,-31.229c8.161,4.253 16.214,7.988 20.899,12.025c10.19,8.82 7.232,-1.975 52.592,4.264c8.96,1.231 16.884,3.055 23.825,5.182c15.674,10.622 28.671,19.323 28.671,19.323z" fill="#4F91B3" id="svg_82"/>
  <path d="m968.221,374.603c0,0 -34.014,20.867 -34.09,7.729c-0.022,-4.404 -0.821,-8.214 -1.868,-11.313c-2.072,-6.153 -5.127,-9.564 -5.127,-9.564c0,0 -0.011,0.011 -0.022,0.033c-12.144,12.943 -17.563,8.841 -19.042,6.379c-1.479,-2.461 -11.507,-23.165 -10.028,-30.074c1.479,-6.898 1.155,-11.011 -0.983,-15.286c-2.126,-4.264 0.983,-14.616 0.983,-14.616l28.93,-6.088c0,0 26.782,27.278 29.081,36.476c2.3,9.208 12.166,36.324 12.166,36.324z" fill="#E9928B" id="svg_83"/>
  <path d="m1006.67,463.994c-8.871,26.621 -57.135,115.516 -82.395,118.053c-10.298,1.036 -23.587,-5.689 -35.699,-14.022c-17.595,-12.101 -32.74,-27.581 -32.74,-27.581c22.183,-15.728 19.225,-65.32 19.225,-65.32c0,0 0,0.011 -0.011,0.021c-0.485,0.4 -31.704,26.329 -52.635,28.769c-21.104,2.461 -89.328,-44.864 -89.328,-44.864c0,0 15.285,-38.451 22.68,-36.972c7.394,1.479 56.198,33.032 64.553,33.518c8.356,0.497 55.724,-41.906 67.512,-53.737c11.798,-11.831 58.205,-30.074 90.741,-30.56c0,0 21.201,3.454 28.597,19.225c7.38,15.793 8.38,46.85 -0.5,73.47z" fill="#67A4C3" id="svg_84"/>
  <path d="m912.163,278.626c-15.447,1.857 -30.117,13.3 -25.379,24.775c4.739,11.464 13.991,12.845 19.917,12.921c5.926,0.076 7.891,3.595 9.964,6.801c2.072,3.206 2.99,1.22 5.592,-3.973c2.601,-5.203 8.56,-1.479 8.711,5.527c0.151,7.006 -1.069,23.987 11.464,24.289c12.533,0.302 14.983,-4.89 15.448,-4.89c0.464,0 10.697,-20.942 9.942,-39.294c0,0 12.997,-6.725 10.546,-17.433c-2.45,-10.698 -16.516,-12.846 -24.925,-4.21c0,0 -7.038,0.377 -13.612,-4.048c-6.575,-4.437 -15.448,-6.574 -19.572,-3.973c-4.123,2.591 -4.274,3.044 -8.096,3.508z" fill="#0C1B3C" id="svg_85"/>
  <path d="m923.186,631.133l-13.202,0l0,150.005l13.202,0l0,-150.005z" fill="#F0D1AA" id="svg_86"/>
  <path d="m923.186,781.138l-6.606,0l0,-150.005l6.606,-0.41l0,150.415z" fill="#EDBF84" id="svg_87"/>
  <path d="m968.837,792.235l-104.516,0c0,-3.066 1.241,-5.829 3.249,-7.837c2.008,-2.008 4.782,-3.25 7.848,-3.25l82.322,0c6.131,-0.01 11.097,4.955 11.097,11.087z" fill="#EDBF84" id="svg_88"/>
  <path d="m935.492,792.235l-71.16,0c0,-3.066 1.241,-5.829 3.249,-7.837c2.008,-2.008 4.782,-3.25 7.848,-3.25l41.161,0l18.902,11.087z" fill="#F0D1AA" id="svg_89"/>
  <path d="m1046.28,473.742c-0.94,0.432 -1.86,0.896 -2.75,1.392c-0.29,0.162 -0.59,0.324 -0.87,0.486c-0.29,0.162 -0.57,0.324 -0.85,0.497c-0.28,0.162 -0.56,0.334 -0.84,0.518c-0.26,0.162 -0.52,0.324 -0.77,0.486c-0.3,0.194 -0.59,0.388 -0.87,0.593c-0.27,0.184 -0.54,0.367 -0.81,0.562c-0.27,0.194 -0.54,0.388 -0.8,0.583c-0.89,0.658 -1.76,1.349 -2.61,2.061c-0.32,0.26 -0.62,0.519 -0.92,0.789c-1.08,0.95 -2.13,1.943 -3.13,2.979l-0.03,0.032c-0.41,0.421 -0.82,0.853 -1.23,1.296c-0.06,0.065 -0.12,0.14 -0.19,0.205c-0.4,0.432 -0.79,0.874 -1.17,1.328c-0.44,0.496 -0.85,0.993 -1.26,1.5c-0.02,0.032 -0.05,0.065 -0.07,0.097c-0.39,0.475 -0.77,0.961 -1.14,1.447c-0.39,0.507 -0.78,1.025 -1.16,1.554c-0.02,0.033 -0.04,0.054 -0.07,0.087c-0.37,0.518 -0.74,1.036 -1.1,1.565c-0.39,0.55 -0.75,1.101 -1.12,1.662c0,0 0,0.011 -0.01,0.011c-0.32,0.497 -0.64,0.993 -0.95,1.5c-0.09,0.141 -0.17,0.281 -0.26,0.421c-0.08,0.119 -0.16,0.249 -0.24,0.378c-0.58,0.95 -1.14,1.911 -1.69,2.893c-0.67,1.188 -1.33,2.408 -1.95,3.638c-0.32,0.616 -0.63,1.242 -0.93,1.868c-0.32,0.626 -0.62,1.252 -0.91,1.889c-0.59,1.274 -1.18,2.558 -1.74,3.864c-0.28,0.648 -0.56,1.307 -0.83,1.965c-0.28,0.659 -0.55,1.328 -0.81,1.986c-0.24,0.572 -0.45,1.145 -0.68,1.728c-0.29,0.766 -0.58,1.532 -0.87,2.31c-0.26,0.68 -0.5,1.349 -0.75,2.04c-0.03,0.075 -0.05,0.162 -0.09,0.237c-0.21,0.605 -0.43,1.209 -0.63,1.814c-0.49,1.403 -0.97,2.817 -1.44,4.242c-0.21,0.659 -0.43,1.328 -0.63,1.987c-0.22,0.701 -0.44,1.392 -0.66,2.094c-0.41,1.327 -0.81,2.644 -1.2,3.972c-0.02,0.076 -0.04,0.162 -0.07,0.238c-0.21,0.701 -0.41,1.414 -0.61,2.116c-0.01,0.01 -0.01,0.021 -0.01,0.032c-0.2,0.691 -0.4,1.392 -0.6,2.083c-0.26,0.896 -0.49,1.792 -0.74,2.688c-0.14,0.508 -0.28,1.026 -0.41,1.533c-0.08,0.281 -0.15,0.572 -0.24,0.853c-0.5,1.824 -0.97,3.649 -1.45,5.462c-0.46,1.77 -0.91,3.53 -1.366,5.268c-0.195,0.745 -0.389,1.479 -0.572,2.224c-0.594,2.321 -1.188,4.62 -1.771,6.876c-0.183,0.659 -0.345,1.328 -0.518,1.986c-0.313,1.199 -0.637,2.386 -0.95,3.552c-0.194,0.723 -0.388,1.457 -0.594,2.17c-0.712,2.58 -1.425,5.084 -2.169,7.513c-0.162,0.55 -0.335,1.101 -0.497,1.641c-0.119,0.388 -0.248,0.766 -0.367,1.155c-0.097,0.324 -0.205,0.658 -0.313,0.971c-0.345,1.058 -0.691,2.105 -1.058,3.12c-0.378,1.101 -0.766,2.17 -1.166,3.217c-0.021,0.054 -0.043,0.108 -0.054,0.162c-0.183,0.475 -0.367,0.928 -0.55,1.392c-0.162,0.4 -0.324,0.799 -0.486,1.188c-0.043,0.097 -0.086,0.216 -0.13,0.313c-0.183,0.453 -0.388,0.896 -0.582,1.349c-0.011,0.033 -0.033,0.076 -0.054,0.108c-0.216,0.475 -0.432,0.95 -0.648,1.414c-0.216,0.464 -0.432,0.918 -0.659,1.36c-0.162,0.335 -0.324,0.659 -0.496,0.983c-0.076,0.151 -0.151,0.302 -0.238,0.442c-0.216,0.389 -0.421,0.767 -0.637,1.145c-0.097,0.183 -0.205,0.356 -0.302,0.529c-0.129,0.226 -0.27,0.453 -0.41,0.68c-18.535,30.161 -71.235,29.07 -71.235,29.07l-77.41,0c-18.168,0 -18.535,-18.535 2.18,-19.992c20.715,-1.457 61.056,-25.443 79.224,-78.133c8.808,-25.541 19.063,-40.751 27.3,-49.646c6.995,-7.567 16.905,-11.777 27.203,-11.777l73.995,0c1.23,0 1.59,1.652 0.49,2.159z" fill="#F4C8AF" id="svg_90"/>
  <path d="m1043.53,475.135c-0.29,0.162 -0.59,0.324 -0.87,0.486c-0.29,0.162 -0.57,0.323 -0.85,0.496c-0.28,0.162 -0.56,0.335 -0.84,0.518c-0.26,0.162 -0.51,0.324 -0.77,0.486c-0.3,0.194 -0.59,0.389 -0.87,0.594c-0.28,0.183 -0.55,0.367 -0.81,0.561c-0.27,0.194 -0.54,0.389 -0.8,0.583c-0.89,0.659 -1.76,1.349 -2.61,2.062c-0.32,0.259 -0.62,0.518 -0.92,0.788c-1.08,0.95 -2.13,1.943 -3.13,2.979l-0.03,0.033c-0.41,0.421 -0.82,0.852 -1.23,1.295c-0.06,0.065 -0.12,0.14 -0.19,0.205c-0.4,0.432 -0.79,0.874 -1.17,1.328c-0.44,0.496 -0.85,0.993 -1.26,1.5c-0.02,0.033 -0.05,0.065 -0.07,0.097c-0.38,0.475 -0.77,0.961 -1.14,1.447c-0.38,0.518 -0.78,1.036 -1.16,1.555c-0.02,0.032 -0.04,0.054 -0.07,0.086c-0.36,0.518 -0.74,1.036 -1.1,1.565c-0.38,0.551 -0.74,1.101 -1.12,1.663c0,0 0,0.01 -0.01,0.01c-0.31,0.497 -0.64,0.993 -0.95,1.501c-0.09,0.14 -0.17,0.28 -0.26,0.421c-0.08,0.119 -0.15,0.248 -0.23,0.378l-0.01,0c-0.58,0.95 -1.14,1.91 -1.69,2.893c-0.67,1.187 -1.33,2.407 -1.95,3.638c-0.32,0.615 -0.63,1.23 -0.93,1.867c-0.31,0.626 -0.62,1.252 -0.91,1.889c-0.59,1.274 -1.18,2.559 -1.74,3.865c-0.28,0.647 -0.56,1.306 -0.83,1.964c-0.28,0.659 -0.55,1.328 -0.81,1.987c-0.24,0.572 -0.45,1.144 -0.68,1.727c-0.29,0.766 -0.58,1.533 -0.87,2.31c-0.25,0.68 -0.5,1.349 -0.75,2.04c-0.03,0.076 -0.05,0.162 -0.09,0.238c-0.21,0.604 -0.43,1.209 -0.63,1.813c-0.49,1.404 -0.97,2.818 -1.44,4.243c-0.21,0.658 -0.42,1.327 -0.64,1.986c-0.21,0.702 -0.43,1.392 -0.65,2.094c-0.41,1.328 -0.81,2.656 -1.2,3.973c-0.02,0.075 -0.04,0.161 -0.07,0.237c-0.2,0.702 -0.41,1.414 -0.61,2.116c-0.01,0.011 -0.01,0.021 -0.01,0.032c-0.2,0.691 -0.39,1.382 -0.6,2.084c-0.26,0.896 -0.49,1.792 -0.74,2.688c-0.14,0.518 -0.28,1.025 -0.41,1.532c-0.08,0.281 -0.15,0.573 -0.24,0.853c-0.48,1.825 -0.97,3.649 -1.45,5.462c-0.46,1.771 -0.91,3.53 -1.366,5.268c-0.195,0.745 -0.378,1.49 -0.573,2.224c-0.593,2.321 -1.187,4.62 -1.77,6.876c-0.173,0.67 -0.345,1.328 -0.518,1.987c-0.313,1.198 -0.637,2.385 -0.95,3.551c-0.194,0.723 -0.389,1.457 -0.594,2.17c-0.712,2.58 -1.425,5.084 -2.169,7.513c-0.162,0.551 -0.335,1.101 -0.497,1.641c-0.119,0.389 -0.248,0.766 -0.367,1.155c-0.097,0.324 -0.205,0.659 -0.313,0.972c-0.345,1.058 -0.691,2.105 -1.058,3.119c-0.378,1.101 -0.766,2.17 -1.166,3.217c-0.021,0.054 -0.043,0.108 -0.054,0.162c-0.183,0.475 -0.367,0.928 -0.55,1.393c-0.162,0.399 -0.324,0.798 -0.486,1.187c-0.043,0.097 -0.087,0.216 -0.13,0.313c-0.183,0.454 -0.388,0.896 -0.583,1.35c-0.01,0.032 -0.032,0.075 -0.054,0.107c-0.215,0.475 -0.431,0.95 -0.647,1.415c-0.216,0.464 -0.432,0.917 -0.659,1.36c-0.162,0.334 -0.324,0.658 -0.496,0.982c-0.076,0.151 -0.151,0.302 -0.238,0.443c-0.216,0.388 -0.421,0.766 -0.637,1.144c-0.237,0.41 -0.475,0.81 -0.712,1.209c-18.535,30.161 -71.236,29.071 -71.236,29.071l-72.509,0c-5.17,-4.038 -2.655,-10.202 11.097,-11.173c20.716,-1.457 65.471,-30.701 83.65,-83.401c8.809,-25.541 19.064,-40.751 27.3,-49.646c6.995,-7.567 16.894,-11.777 27.203,-11.777l53.492,0l0,0z" fill="#F7DFD3" id="svg_91"/>
  <path d="m1021.05,497.782c-0.58,0.95 -1.14,1.911 -1.69,2.893c-0.67,1.188 -1.33,2.408 -1.94,3.638c-0.33,0.615 -0.64,1.231 -0.94,1.868c-0.31,0.626 -0.62,1.252 -0.91,1.889c-0.59,1.274 -1.18,2.558 -1.74,3.864c-0.28,0.648 -0.56,1.307 -0.83,1.965c-0.28,0.659 -0.55,1.328 -0.81,1.986c-0.24,0.572 -0.45,1.145 -0.68,1.728c-0.29,0.766 -0.58,1.532 -0.87,2.31c-0.25,0.68 -0.5,1.349 -0.75,2.04c-0.03,0.075 -0.05,0.162 -0.09,0.237c-0.21,0.605 -0.43,1.209 -0.63,1.814c-0.49,1.403 -0.97,2.817 -1.44,4.242c-0.21,0.659 -0.42,1.328 -0.63,1.986c-0.22,0.702 -0.44,1.393 -0.66,2.095c-0.41,1.327 -0.81,2.655 -1.2,3.972c-0.02,0.076 -0.04,0.162 -0.07,0.238c-0.2,0.701 -0.41,1.414 -0.61,2.116c-0.01,0.01 -0.01,0.021 -0.01,0.032c-0.2,0.691 -0.39,1.382 -0.6,2.083c-0.26,0.896 -0.49,1.792 -0.74,2.688c-0.14,0.518 -0.28,1.026 -0.41,1.533c-0.08,0.281 -0.15,0.572 -0.24,0.853c-0.48,1.824 -0.97,3.649 -1.45,5.462c-0.46,1.77 -0.91,3.53 -1.366,5.268c-0.194,0.745 -0.378,1.49 -0.572,2.224c-0.594,2.321 -1.187,4.62 -1.77,6.876c-0.173,0.669 -0.346,1.328 -0.519,1.986c-0.313,1.199 -0.636,2.386 -0.949,3.552c-0.195,0.723 -0.389,1.457 -0.594,2.17c-0.713,2.58 -1.425,5.084 -2.17,7.513c-0.162,0.55 -0.335,1.101 -0.497,1.641c-0.118,0.388 -0.248,0.766 -0.367,1.155c-0.097,0.324 -0.205,0.658 -0.313,0.971c-0.345,1.058 -0.69,2.105 -1.058,3.12c-0.377,1.101 -0.766,2.17 -1.165,3.217c-0.022,0.054 -0.044,0.108 -0.054,0.162c-0.184,0.475 -0.367,0.928 -0.551,1.392c-0.162,0.4 -0.324,0.799 -0.486,1.188c-0.043,0.097 -0.086,0.216 -0.129,0.313c-0.184,0.453 -0.389,0.896 -0.583,1.349c-0.011,0.033 -0.033,0.076 -0.054,0.108c-0.216,0.475 -0.432,0.95 -0.648,1.414c-0.216,0.464 -0.432,0.918 -0.658,1.36c-0.162,0.335 -0.324,0.659 -0.497,0.983c-0.075,0.151 -0.151,0.302 -0.237,0.442c-0.216,0.389 -0.421,0.767 -0.637,1.145c-0.097,0.183 -0.205,0.356 -0.303,0.529c-0.129,0.226 -0.269,0.453 -0.41,0.68c-18.535,30.161 -71.235,29.07 -71.235,29.07l-25.476,0c2.677,-0.162 52.172,-2.537 69.821,-76.525c11.939,-49.969 44.327,-52.938 63.417,-56.835z" fill="#F4C8AF" id="svg_92"/>
  <path d="m487.591,630.408l0,-50.66c0,-15.793 -12.803,-28.596 -28.596,-28.596l-36.152,0l0,240.942l46.343,0l18.405,0l57.18,0l0,-104.505c0,-15.793 -12.802,-28.596 -28.595,-28.596c-15.782,0.011 -28.585,-12.792 -28.585,-28.585z" fill="#DCECEB" id="svg_93"/>
  <path d="m479.883,730.912c-11.032,-21.05 -24.332,-36.066 -45.965,-53.057c-21.622,-16.991 -49.958,-17.067 -61.52,-22.54c-11.572,-5.484 -11.863,9.694 -8.269,23.943c3.595,14.249 -7.319,79.861 58.401,100.716c65.708,20.867 65.503,-33.528 57.353,-49.062z" fill="#F2D6C8" id="svg_94"/>
  <path d="m438.376,745.065c-0.485,0 -0.906,-0.356 -0.971,-0.852c-3.152,-23.231 8.366,-46.181 8.485,-46.407c0.248,-0.486 0.842,-0.681 1.327,-0.432c0.486,0.248 0.681,0.842 0.432,1.328c-0.118,0.226 -11.345,22.647 -8.29,45.241c0.075,0.54 -0.302,1.036 -0.842,1.112c-0.054,0.01 -0.097,0.01 -0.141,0.01z" fill="#F5B89B" id="svg_95"/>
  <path d="m438.549,747.665c-0.151,0 -0.313,-0.032 -0.453,-0.108c-19.582,-10.287 -53.619,-6.606 -53.964,-6.563c-0.54,0.054 -1.026,-0.324 -1.09,-0.874c-0.065,-0.54 0.324,-1.026 0.874,-1.09c1.425,-0.162 34.986,-3.79 55.097,6.779c0.486,0.248 0.669,0.853 0.41,1.328c-0.183,0.334 -0.518,0.528 -0.874,0.528z" fill="#F5B89B" id="svg_96"/>
  <path d="m444.691,766.556c-0.442,0 -0.853,-0.303 -0.961,-0.756c-14.109,-58.282 -70.037,-99.464 -70.598,-99.874c-0.443,-0.324 -0.54,-0.939 -0.216,-1.382c0.324,-0.443 0.939,-0.54 1.382,-0.216c0.572,0.41 57.072,42.025 71.354,101.008c0.129,0.529 -0.194,1.058 -0.723,1.187c-0.076,0.022 -0.162,0.033 -0.238,0.033z" fill="#F5B89B" id="svg_97"/>
  <path d="m418.276,711.892c-0.216,0 -0.431,-0.076 -0.615,-0.216c-12.77,-10.223 -43.633,-7.556 -43.935,-7.524c-0.551,0.065 -1.026,-0.356 -1.069,-0.896c-0.054,-0.54 0.346,-1.025 0.896,-1.069c1.296,-0.118 31.953,-2.763 45.35,7.945c0.421,0.346 0.496,0.961 0.151,1.382c-0.195,0.249 -0.486,0.378 -0.778,0.378z" fill="#F5B89B" id="svg_98"/>
  <path d="m408.032,698.905c-0.389,0 -0.745,-0.227 -0.907,-0.605c-4.005,-9.521 -1.889,-25.616 -1.803,-26.296c0.076,-0.54 0.551,-0.918 1.112,-0.842c0.54,0.076 0.917,0.572 0.842,1.112c-0.022,0.162 -2.127,16.246 1.662,25.26c0.216,0.496 -0.021,1.079 -0.529,1.295c-0.118,0.043 -0.248,0.076 -0.377,0.076z" fill="#F5B89B" id="svg_99"/>
  <path d="m1420.16,376.522c-1,1.306 -2.17,2.288 -3.45,2.99c-10.66,5.862 -29.8,-6.898 -38.54,-6.488c-9.8,0.475 -14.47,13.3 -37.57,4.2c-23.09,-9.1 -17.72,-45.015 -16.32,-58.552c1.4,-13.526 -7,-20.294 -21.46,-19.83c-14.46,0.475 -29.72,-7.459 -23.14,-30.323c6.58,-22.852 -11.96,-34.846 -23.04,-30.787c-11.09,4.059 -5.14,-15.393 -5.14,-15.393c0,0 9.47,-13.483 28.18,-11.529c5.86,0.615 10.09,2.547 13.32,5.224c0,0 0.01,0 0.02,0.022c0.74,0.626 1.44,1.296 2.09,1.986c0.01,0.022 0.03,0.033 0.04,0.054c5.41,5.862 7.53,14.055 10.95,20.327c5.6,10.266 14.93,9.564 29.4,5.138c14.46,-4.436 43.61,-2.385 49.91,21.785c6.3,24.169 -10.49,52.398 19.6,59.404c30.08,6.973 24.48,39.638 15.15,51.772z" fill="#0C1B3C" id="svg_100"/>
  <path d="m1252.63,220.408c0,0 8.73,5.754 7.73,17.423c0,0 0.01,3.368 -3.82,1.641c-3.84,-1.727 -6.95,-14.368 -6.62,-17.088c0.34,-2.731 1.75,-2.299 2.71,-1.976z" fill="#3FB8A9" id="svg_101"/>
  <path d="m1248.95,272.481c-13.37,11.658 -19.94,10.849 -23.83,5.128c-1.46,-2.127 -5.5,-7.406 -10,-13.181c-7.56,-9.726 -16.4,-20.867 -16.4,-20.867c0,0 -14,-0.885 -14.3,-11.712c-0.05,-2.073 0.34,-4.145 1.17,-6.153c3.45,-8.506 14.4,-15.868 29.63,-17.121c18.82,-1.554 35.92,7.783 40.9,20.845c4.95,13.051 6.21,31.402 -7.17,43.061z" fill="#0C1B3C" id="svg_102"/>
  <g id="svg_103" opacity="0.52">
   <path d="m1215.12,264.427c-7.56,-9.727 -16.4,-20.867 -16.4,-20.867c0,0 -14,-0.885 -14.3,-11.712c-0.05,-2.073 0.34,-4.146 1.17,-6.153c2.78,-4.351 8.01,-8.097 17.8,-6.866c20.99,2.645 11.25,37.717 16.43,41.409c1.9,1.36 -0.67,2.85 -4.7,4.189z" fill="#1B5175" id="svg_104" opacity="0.52"/>
  </g>
  <path d="m1140.73,480.325c0,0 -7.42,2.181 -11.07,4.933c-3.65,2.753 -12.52,7.028 -12.7,8.464c-0.17,1.435 7.45,-0.799 10.45,-1.965c3,-1.166 2.53,1.706 -1.21,5.246c-3.73,3.541 -5.25,5.095 -9.55,8.366c-4.31,3.282 -4.81,4.75 -3.15,5.344c1.65,0.594 3.18,-0.486 3.18,-0.486c0,0 -3.86,2.936 -2.33,4.577c1.53,1.641 6.26,-1.846 6.26,-1.846c0,0 -1.34,2.364 1.92,2.289c3.26,-0.076 4.38,-1.544 8.23,-2.678c3.85,-1.133 15.47,-13.385 18.17,-17.649c2.7,-4.264 4.06,-7.956 4.06,-7.956l-12.26,-6.639z" fill="#FFAC95" id="svg_105"/>
  <path d="m1220.76,379.512c0,0 7.11,35.536 -10.27,55.431c-17.38,19.895 -57.02,56.285 -57.02,56.285l-14.58,-11.432c0,0 35.7,-47.238 40.6,-65.374c1.05,-3.864 2.02,-11.291 2.02,-11.291l39.25,-23.619z" fill="#F5911F" id="svg_106"/>
  <path d="m1170.4,475.133c0,0 -1.1,-4.102 0.54,-7.697c1.64,-3.595 9.44,7.168 9.44,7.168l2.05,8.96l-12.03,-8.431z" fill="#FFAC95" id="svg_107"/>
  <path d="m1362.98,719.084c6.66,7.168 20.8,34.155 20.8,34.155l-10.47,7.61c0,0 -11.99,-18.017 -14.48,-16.937c-2.49,1.079 -0.04,27.484 -3.37,29.902c-3.34,2.418 -25.48,18.502 -25.48,18.502c0,0 -0.94,-9.305 3.37,-17.898c3.82,-7.599 7.75,-23.273 -2.24,-46.903c-1.29,-3.066 -2.81,-6.261 -4.61,-9.586l23,-21.428c0,0 2.84,6.391 6.62,12.846c2.09,3.584 4.47,7.189 6.86,9.737z" fill="#1B5175" id="svg_108"/>
  <path d="m1326.5,717.94l23,-21.427c0,0 2.84,6.39 6.62,12.845l-25.01,18.158c-1.29,-3.055 -2.83,-6.251 -4.61,-9.576z" fill="#E9928B" id="svg_109"/>
  <path d="m1368.12,691.353l-51.01,34.846c0,0 -26.68,-32.806 -50.35,-62.956c-15.78,-20.132 -30.22,-39.067 -34.45,-46.299c-8.54,-14.573 -20.74,-72.175 -25.11,-93.775c-1.04,-5.139 -1.64,-8.247 -1.64,-8.247l6.25,-17.542l12.13,-34.058l0.9,-2.526c0,0 8.75,-4.512 18.5,-6.93c2.59,-0.648 5.27,-1.145 7.85,-1.371c7.95,-0.68 15.2,1.209 17.46,9.294c0.13,0.475 0.25,0.972 0.35,1.49c0.45,2.418 0.95,5.516 1.47,9.111c4.39,30.614 10.58,98.147 12.52,105.736c2.19,8.484 85.13,113.227 85.13,113.227z" fill="#5F6386" id="svg_110"/>
  <path d="m1266.76,663.245c-15.78,-20.133 -30.22,-39.067 -34.45,-46.299c-8.54,-14.573 -20.74,-72.175 -25.11,-93.775c1.21,-4.836 2.14,-8.032 2.6,-8.723c2.62,-3.94 60.68,-42.035 60.68,-42.035c0,0 2.42,34.058 -9.09,55.788c-11.51,21.741 -21.36,37.674 -12.16,61.088c9.2,23.425 -10.51,36.908 5.26,50.045c9.12,7.6 11.71,17.186 12.27,23.911z" fill="#4A4E73" id="svg_111"/>
  <path d="m1168.05,752.465c1.17,9.715 -3.24,39.865 -3.24,39.865l-12.95,0c0,0 0.89,-21.622 -1.77,-22.216c-2.64,-0.593 -16.18,22.216 -20.3,22.216c-4.13,0 -31.49,0 -31.49,0c0,0 4.71,-8.085 13.25,-12.5c7.55,-3.908 19.94,-14.282 25.75,-39.261c0.76,-3.239 1.41,-6.725 1.91,-10.46l31.19,-3.822c0,0 -1.46,6.833 -2.19,14.293c-0.4,4.102 -0.59,8.42 -0.16,11.885z" fill="#1B5175" id="svg_112"/>
  <path d="m1139.21,730.098l31.19,-3.822c0,0 -1.46,6.834 -2.19,14.293l-30.91,0c0.76,-3.249 1.4,-6.725 1.91,-10.471z" fill="#E9928B" id="svg_113"/>
  <path d="m1197.48,446.507c0,0 -44.78,105.131 -57.85,148.667c-13.06,43.546 -32.96,137.472 -32.96,137.472l68.43,0c0,0 26.74,-127.519 38.57,-148.051c11.82,-20.532 55.98,-95.179 49.13,-121.928c-6.85,-26.739 -65.32,-16.16 -65.32,-16.16z" fill="#5F6386" id="svg_114"/>
  <path d="m1270.49,472.412l-20.76,53.877l-67.28,-42.726l41.5,-20.219l19.4,-9.456l5.43,-2.656l2.42,1.285l17.46,9.294c0.13,0.475 0.25,0.972 0.35,1.49c0.46,2.407 0.95,5.505 1.48,9.111z" fill="#4A4E73" id="svg_115"/>
  <path d="m1235.43,304.716c0,0 -16.17,6.801 -29.86,25.465c-13.69,18.664 -29.86,53.359 -31.1,59.955c-1.24,6.595 10.66,59.015 10.62,72.541c-0.04,13.526 63.65,8.528 81.69,-0.183c0,0 -7.09,-49.581 -7.09,-56.425c0,-6.844 0.63,-52.873 -3.11,-74.02c-3.74,-21.148 -21.15,-27.333 -21.15,-27.333z" fill="#FFAB40" id="svg_116"/>
  <path d="m1231.56,353.486c0,0 -2.56,17.024 0,29.837c2.56,12.814 -17.43,5.02 -24.36,31.1c-6.93,26.081 52.4,13.429 52.4,13.429c0,0 16.35,-25.141 16.47,-29.416c0.12,-4.264 -44.51,-44.95 -44.51,-44.95z" fill="#F5911F" id="svg_117"/>
  <path d="m1235.43,304.716c0,0 -31.26,32.147 -28.51,23.684c1.51,-4.663 -1.12,-15.814 -3.8,-24.893c-2.19,-7.416 -4.4,-13.45 -4.4,-13.45c0,0 6.01,-6.11 12.3,-11.324c6.66,-5.527 13.64,-10.039 14.1,-5.16c0.88,9.489 10.31,31.143 10.31,31.143z" fill="#FFAC95" id="svg_118"/>
  <path d="m1154.51,369.406l-35.22,75.851l130.89,60.767l35.21,-75.851l-130.88,-60.767z" fill="#3FB8A9" id="svg_119"/>
  <path d="m1158.74,380.976l-27.88,60.047l115.08,53.431l27.88,-60.048l-115.08,-53.43z" fill="white" id="svg_120"/>
  <path d="m1142.66,447.596l47.2,-33.172l5.12,57.461l-52.32,-24.289z" fill="#3FB8A9" id="svg_121"/>
  <path d="m1192.55,470.871l36.51,-25.659l3.96,44.453l-40.47,-18.794z" fill="#3FB8A9" id="svg_122"/>
  <path d="m1220.95,428.237c2.14,-4.226 0.46,-9.391 -3.77,-11.535c-4.23,-2.145 -9.39,-0.456 -11.54,3.771c-2.14,4.226 -0.45,9.391 3.77,11.535c4.23,2.145 9.4,0.456 11.54,-3.771z" fill="#3FB8A9" id="svg_123"/>
  <path d="m1194.74,458.562c0,0 -6.09,0.864 -10.38,1.965c-4.31,1.101 -12.78,0.497 -13.77,2.461c-0.98,1.965 9.52,3.692 12.08,3.93c2.56,0.237 -3.96,3.843 -7.65,4.868c-3.69,1.026 -6.64,2.505 -2.83,5.948c3.81,3.444 9.72,8.604 12.17,8.971c2.46,0.367 14.5,-8.733 21.14,-15.491c6.64,-6.758 -10.76,-12.652 -10.76,-12.652z" fill="#FFAC95" id="svg_124"/>
  <path d="m1236.04,316.178c-11.73,8.982 -7.16,32.04 -1.24,46.969c5.91,14.929 22.7,42.305 21.46,44.788c-1.24,2.494 -63.49,49.721 -63.49,49.721l12.79,16.063c0,0 59.09,-29.708 73.72,-40.276c14.61,-10.579 15.85,-22.086 11.5,-37.015c-4.35,-14.93 -29.54,-99.529 -54.74,-80.25z" fill="#FFAB40" id="svg_125"/>
  <path d="m1150.78,732.904l-2.91,-0.507c0.94,-5.376 23.07,-131.676 26.95,-143.561c3.88,-11.821 34.32,-88.723 35.61,-91.983l2.75,1.09c-0.31,0.799 -31.71,80.076 -35.55,91.821c-3.81,11.669 -26.61,141.823 -26.85,143.14z" fill="#4A4E73" id="svg_126"/>
  <path d="m1345.64,706.845c-0.46,-0.582 -46.57,-58.389 -70.73,-88.28c-24.37,-30.161 -33.39,-72.509 -33.48,-72.93l2.89,-0.605c0.09,0.421 8.97,42.079 32.89,71.667c24.16,29.891 70.28,87.709 70.74,88.292l-2.31,1.856z" fill="#4A4E73" id="svg_127"/>
  <g id="svg_128" opacity="0.52">
   <path d="m1420.16,376.521c-1,1.306 -2.17,2.289 -3.45,2.99c10.37,-12.349 2.76,-28.714 -23.86,-28.379c-26.62,0.324 -33.84,-22.68 -18.07,-60.797c15.77,-38.117 -23.99,-41.085 -40.75,-32.536c-16.77,8.55 -33.86,0.659 -33.2,-17.833c0.45,-12.371 -3.21,-18.891 -5.69,-21.86c5.41,5.862 7.53,14.055 10.95,20.327c5.6,10.266 14.93,9.564 29.39,5.139c14.47,-4.437 43.62,-2.386 49.92,21.784c6.3,24.169 -10.49,52.398 19.6,59.404c30.09,6.963 24.49,39.628 15.16,51.761z" fill="#1B5175" id="svg_129" opacity="0.52"/>
  </g>
  <path d="m1219.87,277.307c0,0 -4.68,17.164 -16.75,26.199c-2.19,-7.416 -4.4,-13.451 -4.4,-13.451c0,0 6.01,-6.109 12.3,-11.323l8.85,-1.425z" fill="#E9928B" id="svg_130"/>
  <path d="m1199.65,232.834c0,0 -8.4,20.834 -16.33,24.882c-7.93,4.048 -2.64,4.976 0,9.488c2.65,4.513 -7.47,18.503 1.24,24.883c8.71,6.379 28.93,-4.049 35.3,-14.779c0,0 11.04,0.465 13.69,-7.934c2.64,-8.398 -5.91,-13.688 -10.88,-9.953c-4.98,3.735 -5.6,-4.048 -7.77,-15.706c-2.19,-11.659 -14.18,-13.364 -15.25,-10.881z" fill="#FFAC95" id="svg_131"/>
  <path d="m308.04,791.805c-1.878,-19.69 15.955,-49.333 73.2,-30.053c0,0 14.465,-45.188 54.233,-43.687c39.769,1.511 52.42,38.699 52.42,38.699c0,0 53.424,-6.455 61.056,38.733c0,0 -238.2,24.752 -240.909,-3.692z" fill="#ADCCC7" id="svg_132"/>
  <path d="m426.774,795.195l-1.944,-0.313c5.16,-32.007 -14.681,-54.978 -14.886,-55.205l1.479,-1.306c0.205,0.248 20.651,23.911 15.351,56.824z" fill="#6EAB9C" id="svg_133"/>
  <path d="m427.431,775.592l-1.511,-1.274c0.183,-0.216 18.319,-21.903 21.406,-35.515l1.922,0.432c-3.196,14.087 -21.061,35.461 -21.817,36.357z" fill="#6EAB9C" id="svg_134"/>
  <path d="m426.589,786.981c-14.162,-0.767 -26.717,-15.372 -27.235,-15.998l1.5,-1.274c0.119,0.151 12.533,14.584 25.843,15.307l-0.108,1.965z" fill="#6EAB9C" id="svg_135"/>
  <path d="m471.28,796.244l-1.285,-1.49c1.026,-0.885 25.228,-21.676 37.815,-22.032l0.054,1.975c-11.896,0.324 -36.347,21.331 -36.584,21.547z" fill="#6EAB9C" id="svg_136"/>
  <path d="m518.616,792.173c-0.194,-0.011 -19.485,-1.187 -35.094,-5.213l0.497,-1.911c15.425,3.983 34.532,5.138 34.716,5.16l-0.119,1.964z" fill="#6EAB9C" id="svg_137"/>
  <path d="m374.85,795.057c-12.749,-10.601 -39.628,-19.064 -39.898,-19.15l0.583,-1.879c1.122,0.346 27.527,8.669 40.578,19.517l-1.263,1.512z" fill="#6EAB9C" id="svg_138"/>
  <path d="m364.93,786.863l-1.976,-0.054c0.313,-10.752 -4.372,-19.204 -4.415,-19.291l1.716,-0.971c0.216,0.367 5.009,8.992 4.675,20.316z" fill="#6EAB9C" id="svg_139"/>
  <path d="m941.072,150.264l-347.045,5.915l-6.898,-5.915l0,-114.0374l353.943,0l6.898,5.9155l-6.898,108.1219z" fill="#B6D5D0" id="svg_140"/>
  <path d="m941.073,25.627l-347.045,5.9156l-6.898,-5.9156l0,-25.627l353.943,0l6.898,5.91557l-6.898,19.71143z" fill="#B6D5D0" id="svg_141"/>
  <path d="m947.971,42.1426l-353.943,0l0,114.0374l353.943,0l0,-114.0374z" fill="#DCECEB" id="svg_142"/>
  <path d="m947.971,5.91602l-353.943,0l0,25.63778l353.943,0l0,-25.63778z" fill="#EDF6F5" id="svg_143"/>
  <path d="m661.776,23.5214c2.647,0 4.793,-2.1458 4.793,-4.7929c0,-2.647 -2.146,-4.793 -4.793,-4.793c-2.647,0 -4.793,2.146 -4.793,4.793c0,2.6471 2.146,4.7929 4.793,4.7929z" fill="#67A4C3" id="svg_144"/>
  <path d="m644.008,18.7285c0,2.6448 -2.148,4.7929 -4.793,4.7929c-2.644,0 -4.793,-2.1481 -4.793,-4.7929c0,-2.6447 2.149,-4.793 4.793,-4.793c2.656,0 4.793,2.1483 4.793,4.793z" fill="#EB908B" id="svg_145"/>
  <path d="m616.654,23.5214c2.647,0 4.793,-2.1458 4.793,-4.7929c0,-2.647 -2.146,-4.793 -4.793,-4.793c-2.647,0 -4.793,2.146 -4.793,4.793c0,2.6471 2.146,4.7929 4.793,4.7929z" fill="#FFAA3F" id="svg_146"/>
  <path d="m876.818,47.7012c-25.174,0 -45.566,20.4022 -45.566,45.5651c0,25.1627 20.403,45.5657 45.566,45.5657c25.173,0 45.565,-20.403 45.565,-45.5657c0,-25.1629 -20.392,-45.5651 -45.565,-45.5651zm0,74.8948c-16.204,0 -29.33,-13.137 -29.33,-29.3297c0,-16.2031 13.137,-29.3296 29.33,-29.3296c16.192,0 29.329,13.1373 29.329,29.3296c0,16.1927 -13.126,29.3297 -29.329,29.3297z" fill="#B2E5E0" id="svg_147"/>
  <path d="m919.857,64.9723c-8.247,-8.2473 -19.625,-13.3317 -32.201,-13.3317c-25.174,0 -45.565,20.4023 -45.565,45.5652c0,2.9042 0.28,5.7532 0.799,8.5172c3.983,21.093 22.507,37.048 44.766,37.048c8.334,0 16.128,-2.224 22.842,-6.121c13.591,-7.891 22.723,-22.593 22.723,-39.4442c0.011,-12.5977 -5.095,-23.997 -13.364,-32.2335zm-17.498,57.6127c-4.329,2.515 -9.349,3.95 -14.703,3.95c-14.325,0 -26.264,-10.276 -28.822,-23.867c-0.335,-1.76 -0.508,-3.5947 -0.508,-5.4622c0,-16.2032 13.138,-29.3298 29.33,-29.3298c8.085,0 15.415,3.2709 20.726,8.5712c5.311,5.3111 8.604,12.6624 8.604,20.7586c0.01,10.8492 -5.884,20.3162 -14.627,25.3792z" fill="#3FB8A9" id="svg_148"/>
  <path d="m933.233,97.2052c0,16.8508 -9.144,31.5638 -22.724,39.4448l-8.139,-14.066c8.744,-5.063 14.627,-14.53 14.627,-25.3788c0,-8.107 -3.292,-15.4475 -8.603,-20.7586l11.475,-11.4749c8.258,8.2365 13.364,19.6358 13.364,32.2335z" fill="white" id="svg_149"/>
  <path d="m910.509,136.649c-6.715,3.897 -14.509,6.121 -22.842,6.121c-22.259,0 -40.783,-15.955 -44.767,-37.048l15.955,-3.055c2.559,13.591 14.498,23.867 28.823,23.867c5.354,0 10.373,-1.435 14.702,-3.951l8.129,14.066z" fill="#FFC945" id="svg_150"/>
  <path d="m771.496,64.4785l-158.653,0l0,7.4053l158.653,0l0,-7.4053z" fill="white" id="svg_151"/>
  <path d="m771.496,95.0361l-158.653,0l0,7.4049l158.653,0l0,-7.4049z" fill="white" id="svg_152"/>
  <path d="m771.496,125.609l-158.653,0l0,7.406l158.653,0l0,-7.406z" fill="white" id="svg_153"/>
  <path d="m1234.06,300.659c0,0 -10.72,12.101 -27.42,18.751l-2.23,12.382c0,0 15.62,-4.783 31.02,-27.063l-1.37,-4.07z" fill="#F5911F" id="svg_154"/>
  <path d="m825.211,792.192l-18.729,0c0,0 15.102,-7.568 20.046,-23.08c3.562,-11.183 9.392,-21.913 16.635,-19.258c7.243,2.656 1.274,14.973 -2.569,21.914c-5.495,9.899 -15.383,20.424 -15.383,20.424z" fill="#408C91" id="svg_155"/>
  <path d="m461.521,551.154l-2.958,0l0,-119.748c0,-10.179 8.28,-18.459 18.46,-18.459l12.209,0l0,2.958l-12.209,0c-8.55,0 -15.502,6.952 -15.502,15.501l0,119.748z" fill="#3FB8A9" id="svg_156"/>
  <path d="m473.46,552.397l-2.958,0l0,-119.748c0,-4.749 3.865,-8.603 8.604,-8.603l21.471,0l0,2.958l-21.471,0c-3.12,0 -5.646,2.536 -5.646,5.645l0,119.748z" fill="#3FB8A9" id="svg_157"/>
  <path d="m887.832,564.454c0.443,1.198 0.68,2.396 0.745,3.573c-17.596,-12.101 -32.741,-27.581 -32.741,-27.581c22.183,-15.728 19.226,-65.32 19.226,-65.32c0,0 25.033,-21.859 28.487,-16.57c3.455,5.289 -8.873,35.602 0,48.048c8.863,12.446 -23.036,37.696 -15.717,57.85z" fill="#4F91B3" id="svg_158"/>
  <path d="m932.264,371.019c-2.072,-6.153 -5.127,-9.564 -5.127,-9.564c0,0 4.49,-5.56 5.138,-12.479c0,0 5.98,13.806 -0.011,22.043z" fill="#DE6667" id="svg_159"/>
  <path d="m683.636,215.256c10.425,-9.035 11.553,-24.81 2.518,-35.236c-9.035,-10.425 -24.811,-11.552 -35.236,-2.518c-10.426,9.035 -11.553,24.811 -2.518,35.236c9.035,10.426 24.81,11.553 35.236,2.518z" fill="white" id="svg_160"/>
  <path d="m827.791,172.016l-110.938,0l0,7.167l110.938,0l0,-7.167z" fill="white" id="svg_161"/>
  <path d="m827.791,193.195l-110.939,0l0,7.168l110.939,0l0,-7.168z" fill="white" id="svg_162"/>
  <path d="m778.243,214.181l-61.391,0l0,7.167l61.391,0l0,-7.167z" fill="white" id="svg_163"/>
  <path d="m413.527,480.696l-60.991,0l0,41.442l60.991,0l0,-41.442z" fill="#ffffff" id="svg_164"/>
  <path d="m374.244,510.287c-1.338,0.647 -3.076,0.971 -5.224,0.971c-2.807,0 -5.009,-0.82 -6.607,-2.472c-1.608,-1.651 -2.407,-3.843 -2.407,-6.585c0,-2.925 0.907,-5.289 2.709,-7.103c1.803,-1.813 4.146,-2.731 7.028,-2.731c1.781,0 3.281,0.227 4.512,0.68l0,3.962c-1.22,-0.734 -2.612,-1.101 -4.178,-1.101c-1.716,0 -3.098,0.54 -4.156,1.619c-1.057,1.08 -1.576,2.537 -1.576,4.383c0,1.77 0.497,3.174 1.49,4.221c0.993,1.047 2.332,1.576 4.016,1.576c1.608,0 3.076,-0.389 4.404,-1.177l0,3.757l-0.011,0z" fill="#ffffff" id="svg_165"/>
  <path d="m377.236,510.242l0,-4.081c0.734,0.615 1.543,1.08 2.407,1.393c0.863,0.313 1.738,0.464 2.623,0.464c0.518,0 0.972,-0.043 1.36,-0.14c0.389,-0.098 0.713,-0.227 0.972,-0.389c0.259,-0.162 0.453,-0.356 0.583,-0.583c0.129,-0.227 0.194,-0.464 0.194,-0.734c0,-0.356 -0.097,-0.68 -0.302,-0.961c-0.205,-0.281 -0.486,-0.54 -0.831,-0.777c-0.357,-0.238 -0.767,-0.464 -1.253,-0.691c-0.485,-0.216 -1.004,-0.443 -1.565,-0.68c-1.425,-0.594 -2.494,-1.317 -3.195,-2.181c-0.702,-0.852 -1.047,-1.889 -1.047,-3.108c0,-0.95 0.194,-1.771 0.572,-2.451c0.378,-0.68 0.907,-1.241 1.565,-1.684c0.658,-0.443 1.425,-0.766 2.289,-0.972c0.863,-0.205 1.781,-0.313 2.752,-0.313c0.95,0 1.792,0.054 2.526,0.173c0.734,0.119 1.414,0.292 2.03,0.529l0,3.811c-0.303,-0.216 -0.637,-0.4 -1.004,-0.562c-0.356,-0.162 -0.734,-0.291 -1.112,-0.399c-0.378,-0.108 -0.767,-0.184 -1.144,-0.238c-0.378,-0.054 -0.734,-0.075 -1.08,-0.075c-0.464,0 -0.896,0.043 -1.274,0.129c-0.378,0.087 -0.701,0.216 -0.971,0.378c-0.259,0.162 -0.464,0.357 -0.615,0.583c-0.141,0.227 -0.216,0.475 -0.216,0.756c0,0.302 0.075,0.583 0.237,0.82c0.162,0.238 0.389,0.475 0.691,0.691c0.302,0.216 0.658,0.432 1.079,0.637c0.421,0.205 0.907,0.421 1.436,0.648c0.734,0.302 1.382,0.626 1.965,0.971c0.583,0.346 1.079,0.734 1.5,1.166c0.421,0.432 0.734,0.928 0.961,1.49c0.216,0.561 0.335,1.198 0.335,1.943c0,1.015 -0.195,1.878 -0.583,2.569c-0.389,0.691 -0.907,1.252 -1.576,1.684c-0.659,0.432 -1.436,0.734 -2.31,0.928c-0.875,0.184 -1.803,0.281 -2.785,0.281c-1.004,0 -1.954,-0.086 -2.861,-0.259c-0.907,-0.173 -1.684,-0.432 -2.353,-0.766z" fill="#ffffff" id="svg_166"/>
  <path d="m392.51,510.242l0,-4.081c0.734,0.615 1.543,1.08 2.407,1.393c0.863,0.313 1.738,0.464 2.623,0.464c0.518,0 0.971,-0.043 1.36,-0.14c0.389,-0.098 0.713,-0.227 0.972,-0.389c0.259,-0.162 0.453,-0.356 0.583,-0.583c0.129,-0.227 0.194,-0.464 0.194,-0.734c0,-0.356 -0.097,-0.68 -0.302,-0.961c-0.205,-0.281 -0.486,-0.54 -0.832,-0.777c-0.356,-0.238 -0.766,-0.464 -1.252,-0.691c-0.486,-0.216 -1.004,-0.443 -1.565,-0.68c-1.425,-0.594 -2.494,-1.317 -3.195,-2.181c-0.702,-0.852 -1.047,-1.889 -1.047,-3.108c0,-0.95 0.194,-1.771 0.572,-2.451c0.377,-0.68 0.906,-1.241 1.565,-1.684c0.658,-0.443 1.425,-0.766 2.288,-0.972c0.864,-0.205 1.782,-0.313 2.753,-0.313c0.95,0 1.792,0.054 2.526,0.173c0.734,0.119 1.414,0.292 2.03,0.529l0,3.811c-0.303,-0.216 -0.637,-0.4 -1.004,-0.562c-0.357,-0.162 -0.734,-0.291 -1.112,-0.399c-0.378,-0.108 -0.767,-0.184 -1.144,-0.238c-0.378,-0.054 -0.735,-0.075 -1.08,-0.075c-0.464,0 -0.896,0.043 -1.274,0.129c-0.378,0.087 -0.701,0.216 -0.971,0.378c-0.259,0.162 -0.464,0.357 -0.616,0.583c-0.14,0.227 -0.215,0.475 -0.215,0.756c0,0.302 0.075,0.583 0.237,0.82c0.162,0.238 0.389,0.475 0.691,0.691c0.302,0.216 0.658,0.432 1.079,0.637c0.421,0.205 0.907,0.421 1.436,0.648c0.734,0.302 1.382,0.626 1.965,0.971c0.583,0.346 1.079,0.734 1.5,1.166c0.421,0.432 0.734,0.928 0.961,1.49c0.216,0.561 0.335,1.198 0.335,1.943c0,1.015 -0.195,1.878 -0.583,2.569c-0.389,0.691 -0.907,1.252 -1.576,1.684c-0.659,0.432 -1.436,0.734 -2.31,0.928c-0.875,0.184 -1.803,0.281 -2.786,0.281c-1.003,0 -1.953,-0.086 -2.86,-0.259c-0.907,-0.173 -1.684,-0.432 -2.353,-0.766z" fill="#ffffff" id="svg_167"/>
  <path d="m319.148,566.784l-97.963,0l0,45.026l97.963,0l0,-45.026z" fill="#ffffff" id="svg_168"/>
  <path d="m247.708,598.791l-4.48,0l0,-8.085l-8.225,0l0,8.085l-4.469,0l0,-19.841l4.469,0l0,7.913l8.225,0l0,-7.913l4.48,0l0,19.841z" fill="#ffffff" id="svg_169"/>
  <path d="m266.892,582.587l-5.656,0l0,16.203l-4.48,0l0,-16.203l-5.635,0l0,-3.638l15.771,0l0,3.638z" fill="#ffffff" id="svg_170"/>
  <path d="m292.884,598.789l-4.415,0l0,-11.874c0,-1.285 0.054,-2.699 0.162,-4.253l-0.108,0c-0.227,1.219 -0.442,2.094 -0.626,2.634l-4.653,13.493l-3.648,0l-4.728,-13.353c-0.13,-0.356 -0.335,-1.285 -0.626,-2.764l-0.13,0c0.119,1.954 0.184,3.671 0.184,5.15l0,10.978l-4.027,0l0,-19.841l6.542,0l4.059,11.766c0.323,0.94 0.561,1.89 0.701,2.839l0.087,0c0.248,-1.101 0.507,-2.051 0.788,-2.86l4.059,-11.734l6.379,0l0,19.819l0,0z" fill="#ffffff" id="svg_171"/>
  <path d="m309.93,598.79l-11.821,0l0,-19.841l4.469,0l0,16.225l7.352,0l0,3.616l0,0z" fill="#ffffff" id="svg_172"/>
  <path d="m473.061,619.753c0,2.59 -2.105,4.695 -4.696,4.695c-2.591,0 -4.696,-2.105 -4.696,-4.695c0,-2.591 2.105,-4.696 4.696,-4.696c2.601,0 4.696,2.105 4.696,4.696z" fill="#B6D5D0" id="svg_173"/>
  <path d="m468.376,602.365c2.593,0 4.696,-2.102 4.696,-4.696c0,-2.593 -2.103,-4.695 -4.696,-4.695c-2.593,0 -4.696,2.102 -4.696,4.695c0,2.594 2.103,4.696 4.696,4.696z" fill="#B6D5D0" id="svg_174"/>
  <path d="m468.376,580.279c2.594,0 4.696,-2.102 4.696,-4.696c0,-2.593 -2.102,-4.695 -4.696,-4.695c-2.593,0 -4.695,2.102 -4.695,4.695c0,2.594 2.102,4.696 4.695,4.696z" fill="#B6D5D0" id="svg_175"/>
  <path d="m201.991,689.49l-201.04422,0c0,0 13.82822,-30.852 45.73792,-18.081c0,0 11.7016,-31.91 39.3581,-28.186c27.6562,3.724 32.9782,22.982 32.9782,22.982c0,0 29.783,-11.82 58.508,12.123c0,0 23.404,-2.666 24.462,11.162z" fill="#EDF6F5" id="svg_176"/>
  <path d="m932.274,380.033c0,0 0.68,-4.081 4.318,-6.596c3.638,-2.515 26.966,-12.76 33.291,-1.609l-37.609,8.205z" fill="#93405E" id="svg_177"/>
 </g>

</svg>
